<svg xmlns="http://www.w3.org/2000/svg" viewBox="0 0 920 480" width="920" height="480" role="img" aria-label="pamoja - a global mesh of devices relaying data around the world">
  <defs>
    <linearGradient id="bg" x1="0" y1="0" x2="0" y2="1"><stop offset="0" stop-color="#16263f"/><stop offset="0.5" stop-color="#0e1b2e"/><stop offset="1" stop-color="#0a1322"/></linearGradient>
    <radialGradient id="sphere" cx="0.42" cy="0.38" r="0.7"><stop offset="0" stop-color="#15273f"/><stop offset="0.7" stop-color="#0c1a2c"/><stop offset="1" stop-color="#091525"/></radialGradient>
    <radialGradient id="atmo" cx="0.5" cy="0.5" r="0.5"><stop offset="0.78" stop-color="#1FA995" stop-opacity="0"/><stop offset="0.94" stop-color="#1FA995" stop-opacity="0.28"/><stop offset="1" stop-color="#1FA995" stop-opacity="0"/></radialGradient>
    <clipPath id="globe"><circle cx="460" cy="250" r="205"/></clipPath>
  </defs>
  <rect x="0" y="0" width="920" height="480" rx="22" fill="url(#bg)"/>
  <circle cx="460" cy="250" r="237.79999999999998" fill="url(#atmo)"/>
  <circle cx="460" cy="250" r="205" fill="url(#sphere)"/>
  <g clip-path="url(#globe)"><circle cx="460" cy="48.1" r="1.13" fill="#1FA995"><animate attributeName="opacity" values="0.30;0.80;0.30" dur="3s" begin="0s" repeatCount="indefinite"/></circle><circle cx="474.9" cy="47.5" r="1.09" fill="#1FA995" opacity="0.28"/><circle cx="437.7" cy="48.2" r="1.09" fill="#1FA995" opacity="0.28"/><circle cx="474.5" cy="54.3" r="1.29" fill="#1FA995" opacity="0.36"/><circle cx="466.8" cy="45.1" r="0.92" fill="#1FA995" opacity="0.21"/><circle cx="430.1" cy="55.1" r="1.27" fill="#1FA995" opacity="0.35"/><circle cx="499.9" cy="52.9" r="1.16" fill="#1FA995" opacity="0.31"/><circle cx="431.8" cy="47" r="0.92" fill="#1FA995" opacity="0.21"/><circle cx="458.4" cy="61.4" r="1.43" fill="#1FA995" opacity="0.42"/><circle cx="494.4" cy="47.9" r="0.90" fill="#1FA995" opacity="0.20"/><circle cx="408.4" cy="55.1" r="1.14" fill="#1FA995" opacity="0.30"/><circle cx="501.8" cy="61.3" r="1.35" fill="#1FA995" opacity="0.38"/><circle cx="426.8" cy="65" r="1.44" fill="#1FA995" opacity="0.42"/><circle cx="519.4" cy="54.8" r="1.03" fill="#1FA995" opacity="0.25"/><circle cx="405.1" cy="52.5" r="0.92" fill="#1FA995" opacity="0.21"/><circle cx="480.2" cy="69.3" r="1.52" fill="#1FA995" opacity="0.45"/><circle cx="396.7" cy="64.6" r="1.30" fill="#1FA995"><animate attributeName="opacity" values="0.36;0.86;0.36" dur="6s" begin="1.2s" repeatCount="indefinite"/></circle><circle cx="526.7" cy="64.6" r="1.27" fill="#1FA995" opacity="0.35"/><circle cx="441.6" cy="74.3" r="1.58" fill="#1FA995" opacity="0.48"/><circle cx="383.5" cy="60.9" r="1.04" fill="#1FA995" opacity="0.26"/><circle cx="508.9" cy="74.6" r="1.52" fill="#1FA995" opacity="0.45"/><circle cx="400" cy="74.9" r="1.48" fill="#1FA995" opacity="0.44"/><circle cx="543.7" cy="65.5" r="1.11" fill="#1FA995" opacity="0.28"/><circle cx="468.6" cy="82" r="1.67" fill="#1FA995" opacity="0.51"/><circle cx="372.1" cy="71.2" r="1.22" fill="#1FA995" opacity="0.33"/><circle cx="537.2" cy="77.3" r="1.42" fill="#1FA995" opacity="0.41"/><circle cx="418" cy="84.8" r="1.65" fill="#1FA995" opacity="0.51"/><circle cx="548.5" cy="65.1" r="0.89" fill="#1FA995" opacity="0.20"/><circle cx="370.9" cy="65.4" r="0.88" fill="#1FA995" opacity="0.19"/><circle cx="502.3" cy="87.4" r="1.67" fill="#1FA995" opacity="0.52"/><circle cx="374.4" cy="82.4" r="1.44" fill="#1FA995" opacity="0.42"/><circle cx="558.7" cy="77.8" r="1.24" fill="#1FA995" opacity="0.34"/><circle cx="448" cy="93.3" r="1.77" fill="#1FA995"><animate attributeName="opacity" values="0.55;1.00;0.55" dur="5s" begin="0s" repeatCount="indefinite"/></circle><circle cx="354.7" cy="76.3" r="1.08" fill="#1FA995" opacity="0.27"/><circle cx="536.4" cy="90.3" r="1.58" fill="#1FA995" opacity="0.48"/><circle cx="391.5" cy="93.4" r="1.65" fill="#1FA995" opacity="0.50"/><circle cx="568.5" cy="76.7" r="0.99" fill="#1FA995" opacity="0.24"/><circle cx="485.9" cy="99.6" r="1.80" fill="#1FA995" opacity="0.57"/><circle cx="352.1" cy="88.3" r="1.33" fill="#1FA995" opacity="0.37"/><circle cx="564.7" cy="90.8" r="1.40" fill="#1FA995" opacity="0.40"/><circle cx="421.9" cy="103.1" r="1.81" fill="#1FA995" opacity="0.57"/><circle cx="345" cy="80.3" r="0.90" fill="#1FA995" opacity="0.20"/><circle cx="525.9" cy="103.3" r="1.74" fill="#1FA995" opacity="0.54"/><circle cx="365" cy="100.4" r="1.58" fill="#1FA995" opacity="0.48"/><circle cx="581.9" cy="89.4" r="1.14" fill="#1FA995" opacity="0.30"/><circle cx="462.1" cy="110.7" r="1.89" fill="#1FA995" opacity="0.60"/><circle cx="335" cy="92.8" r="1.17" fill="#1FA995" opacity="0.31"/><circle cx="561.7" cy="104.2" r="1.57" fill="#1FA995" opacity="0.47"/><circle cx="393.1" cy="111.5" r="1.79" fill="#1FA995"><animate attributeName="opacity" values="0.56;1.00;0.56" dur="6s" begin="1.5s" repeatCount="indefinite"/></circle><circle cx="506.9" cy="115.6" r="1.87" fill="#1FA995" opacity="0.60"/><circle cx="341.2" cy="105.8" r="1.46" fill="#1FA995" opacity="0.43"/><circle cx="587.6" cy="102.9" r="1.32" fill="#1FA995" opacity="0.37"/><circle cx="433.4" cy="120.6" r="1.93" fill="#1FA995" opacity="0.62"/><circle cx="324.8" cy="96.4" r="0.98" fill="#1FA995" opacity="0.23"/><circle cx="550" cy="117.5" r="1.74" fill="#1FA995" opacity="0.54"/><circle cx="364.2" cy="118.3" r="1.72" fill="#1FA995" opacity="0.53"/><circle cx="598.7" cy="100.1" r="1.02" fill="#1FA995" opacity="0.25"/><circle cx="481.1" cy="127" r="1.97" fill="#1FA995" opacity="0.64"/><circle cx="322.2" cy="110" r="1.29" fill="#1FA995" opacity="0.36"/><circle cx="584.8" cy="116.8" r="1.51" fill="#1FA995" opacity="0.45"/><circle cx="401.9" cy="129" r="1.92" fill="#1FA995" opacity="0.62"/><circle cx="530.1" cy="130.3" r="1.89" fill="#1FA995" opacity="0.61"/><circle cx="337.6" cy="123.6" r="1.59" fill="#1FA995" opacity="0.48"/><circle cx="606.1" cy="114" r="1.21" fill="#1FA995" opacity="0.33"/><circle cx="450.3" cy="137.2" r="2.03" fill="#1FA995"><animate attributeName="opacity" values="0.66;1.00;0.66" dur="5s" begin="1.7999999999999998s" repeatCount="indefinite"/></circle><circle cx="309.8" cy="113.3" r="1.08" fill="#1FA995" opacity="0.27"/><circle cx="573.5" cy="130.6" r="1.70" fill="#1FA995" opacity="0.53"/><circle cx="370.1" cy="136" r="1.85" fill="#1FA995" opacity="0.59"/><circle cx="503.2" cy="142.2" r="2.01" fill="#1FA995" opacity="0.65"/><circle cx="315.6" cy="127.7" r="1.42" fill="#1FA995" opacity="0.41"/><circle cx="605.1" cy="128.3" r="1.42" fill="#1FA995" opacity="0.41"/><circle cx="416.4" cy="146" r="2.03" fill="#1FA995" opacity="0.66"/><circle cx="553.9" cy="144" r="1.88" fill="#1FA995" opacity="0.60"/><circle cx="340.4" cy="141.4" r="1.73" fill="#1FA995" opacity="0.54"/><circle cx="620" cy="124.3" r="1.07" fill="#1FA995" opacity="0.27"/><circle cx="471" cy="153" r="2.09" fill="#1FA995" opacity="0.68"/><circle cx="299.9" cy="130.8" r="1.21" fill="#1FA995" opacity="0.32"/><circle cx="595.5" cy="142.7" r="1.63" fill="#1FA995" opacity="0.50"/><circle cx="381.8" cy="153.3" r="1.97" fill="#1FA995" opacity="0.64"/><circle cx="527.1" cy="156.5" r="2.02" fill="#1FA995" opacity="0.66"/><circle cx="314.8" cy="145.6" r="1.56" fill="#1FA995"><animate attributeName="opacity" values="0.47;0.97;0.47" dur="6s" begin="0.6s" repeatCount="indefinite"/></circle><circle cx="621.9" cy="139" r="1.29" fill="#1FA995" opacity="0.36"/><circle cx="435.3" cy="162.3" r="2.11" fill="#1FA995" opacity="0.69"/><circle cx="291.9" cy="133.1" r="0.97" fill="#1FA995" opacity="0.23"/><circle cx="577.4" cy="156.6" r="1.82" fill="#1FA995" opacity="0.57"/><circle cx="348.8" cy="159.1" r="1.86" fill="#1FA995" opacity="0.59"/><circle cx="629.1" cy="134.1" r="0.90" fill="#1FA995" opacity="0.20"/><circle cx="494.3" cy="167.9" r="2.12" fill="#1FA995" opacity="0.70"/><circle cx="295.2" cy="148.6" r="1.35" fill="#1FA995" opacity="0.38"/><circle cx="615.1" cy="153.8" r="1.52" fill="#1FA995" opacity="0.45"/><circle cx="398.3" cy="170.2" r="2.08" fill="#1FA995" opacity="0.68"/><circle cx="551.5" cy="169.8" r="1.99" fill="#1FA995" opacity="0.64"/><circle cx="319.4" cy="163.5" r="1.70" fill="#1FA995" opacity="0.53"/><circle cx="634.8" cy="149.1" r="1.14" fill="#1FA995" opacity="0.30"/><circle cx="457.5" cy="177.9" r="2.16" fill="#1FA995" opacity="0.71"/><circle cx="283.2" cy="150.8" r="1.10" fill="#1FA995" opacity="0.28"/><circle cx="599.4" cy="168.3" r="1.73" fill="#1FA995"><animate attributeName="opacity" values="0.54;1.00;0.54" dur="3s" begin="0.3s" repeatCount="indefinite"/></circle><circle cx="362.1" cy="176.4" r="1.98" fill="#1FA995" opacity="0.64"/><circle cx="519.2" cy="181.9" r="2.11" fill="#1FA995" opacity="0.69"/><circle cx="295.7" cy="166.6" r="1.49" fill="#1FA995" opacity="0.44"/><circle cx="631.5" cy="164.3" r="1.38" fill="#1FA995" opacity="0.39"/><circle cx="418.5" cy="186.4" r="2.15" fill="#1FA995" opacity="0.71"/><circle cx="575.5" cy="182.2" r="1.92" fill="#1FA995" opacity="0.62"/><circle cx="329.1" cy="181.2" r="1.83" fill="#1FA995" opacity="0.58"/><circle cx="643.2" cy="158.6" r="0.97" fill="#1FA995" opacity="0.23"/><circle cx="481.9" cy="192.7" r="2.19" fill="#1FA995" opacity="0.72"/><circle cx="279.3" cy="168.9" r="1.25" fill="#1FA995" opacity="0.34"/><circle cx="619.1" cy="179.3" r="1.61" fill="#1FA995" opacity="0.49"/><circle cx="379.8" cy="193.3" r="2.08" fill="#1FA995" opacity="0.68"/><circle cx="544.4" cy="195.1" r="2.08" fill="#1FA995" opacity="0.68"/><circle cx="301.2" cy="184.7" r="1.64" fill="#1FA995" opacity="0.50"/><circle cx="644.2" cy="174.1" r="1.22" fill="#1FA995" opacity="0.33"/><circle cx="441.8" cy="201.9" r="2.21" fill="#1FA995"><animate attributeName="opacity" values="0.73;1.00;0.73" dur="4s" begin="1.2s" repeatCount="indefinite"/></circle><circle cx="271.5" cy="170.4" r="0.98" fill="#1FA995" opacity="0.23"/><circle cx="598" cy="193.8" r="1.83" fill="#1FA995" opacity="0.58"/><circle cx="343.4" cy="198.6" r="1.96" fill="#1FA995" opacity="0.63"/><circle cx="507.6" cy="206.6" r="2.18" fill="#1FA995" opacity="0.72"/><circle cx="280.2" cy="187" r="1.40" fill="#1FA995" opacity="0.40"/><circle cx="635.8" cy="189.6" r="1.47" fill="#1FA995" opacity="0.43"/><circle cx="401" cy="209.6" r="2.17" fill="#1FA995" opacity="0.72"/><circle cx="569.1" cy="207.4" r="2.01" fill="#1FA995" opacity="0.65"/><circle cx="311.5" cy="202.5" r="1.78" fill="#1FA995" opacity="0.56"/><circle cx="652.7" cy="183.5" r="1.04" fill="#1FA995" opacity="0.26"/><circle cx="467.1" cy="216.7" r="2.23" fill="#1FA995" opacity="0.74"/><circle cx="267.6" cy="188.6" r="1.13" fill="#1FA995" opacity="0.29"/><circle cx="618.3" cy="204.6" r="1.70" fill="#1FA995" opacity="0.53"/><circle cx="361.7" cy="215.6" r="2.06" fill="#1FA995" opacity="0.67"/><circle cx="533.7" cy="219.8" r="2.14" fill="#1FA995" opacity="0.71"/><circle cx="286" cy="205.2" r="1.55" fill="#1FA995"><animate attributeName="opacity" values="0.46;0.96;0.46" dur="5s" begin="0s" repeatCount="indefinite"/></circle><circle cx="648.9" cy="199.3" r="1.30" fill="#1FA995" opacity="0.36"/><circle cx="424.9" cy="225.1" r="2.22" fill="#1FA995" opacity="0.74"/><circle cx="592.3" cy="218.9" r="1.91" fill="#1FA995" opacity="0.61"/><circle cx="326.1" cy="220" r="1.90" fill="#1FA995" opacity="0.61"/><circle cx="493.6" cy="230.7" r="2.23" fill="#1FA995" opacity="0.74"/><circle cx="268.4" cy="206.9" r="1.29" fill="#1FA995" opacity="0.36"/><circle cx="635.6" cy="214.8" r="1.56" fill="#1FA995" opacity="0.47"/><circle cx="383.4" cy="231.9" r="2.15" fill="#1FA995" opacity="0.71"/><circle cx="559.1" cy="232.1" r="2.08" fill="#1FA995" opacity="0.68"/><circle cx="296.3" cy="223.2" r="1.69" fill="#1FA995" opacity="0.52"/><circle cx="657.8" cy="208.6" r="1.13" fill="#1FA995" opacity="0.29"/><circle cx="450.8" cy="240" r="2.25" fill="#1FA995" opacity="0.75"/><circle cx="260" cy="208.1" r="1.00" fill="#1FA995" opacity="0.24"/><circle cx="613.2" cy="229.7" r="1.79" fill="#1FA995" opacity="0.56"/><circle cx="344.7" cy="237.1" r="2.01" fill="#1FA995" opacity="0.65"/><circle cx="520.2" cy="243.8" r="2.19" fill="#1FA995"><animate attributeName="opacity" values="0.73;1.00;0.73" dur="7s" begin="1.2s" repeatCount="indefinite"/></circle><circle cx="273.9" cy="225.2" r="1.44" fill="#1FA995" opacity="0.42"/><circle cx="649.2" cy="224.5" r="1.39" fill="#1FA995" opacity="0.40"/><circle cx="407.7" cy="247.6" r="2.21" fill="#1FA995" opacity="0.73"/><circle cx="583" cy="243.6" r="1.98" fill="#1FA995" opacity="0.64"/><circle cx="310.9" cy="240.8" r="1.82" fill="#1FA995" opacity="0.58"/><circle cx="662.4" cy="217.7" r="0.94" fill="#1FA995" opacity="0.22"/><circle cx="477.8" cy="254.1" r="2.24" fill="#1FA995" opacity="0.75"/><circle cx="260.3" cy="226.5" r="1.16" fill="#1FA995" opacity="0.31"/><circle cx="631.2" cy="239.9" r="1.64" fill="#1FA995" opacity="0.50"/><circle cx="366.5" cy="253.6" r="2.10" fill="#1FA995" opacity="0.69"/><circle cx="546.2" cy="256.2" r="2.12" fill="#1FA995" opacity="0.70"/><circle cx="284" cy="243.3" r="1.59" fill="#1FA995" opacity="0.48"/><circle cx="658.8" cy="233.8" r="1.21" fill="#1FA995" opacity="0.33"/><circle cx="433.9" cy="262.6" r="2.24" fill="#1FA995" opacity="0.74"/><circle cx="604.6" cy="254.4" r="1.86" fill="#1FA995" opacity="0.59"/><circle cx="329.3" cy="258" r="1.94" fill="#1FA995"><animate attributeName="opacity" values="0.62;1.00;0.62" dur="3s" begin="0s" repeatCount="indefinite"/></circle><circle cx="504.9" cy="267.3" r="2.21" fill="#1FA995" opacity="0.73"/><circle cx="265.3" cy="244.8" r="1.32" fill="#1FA995" opacity="0.37"/><circle cx="645.6" cy="249.5" r="1.47" fill="#1FA995" opacity="0.43"/><circle cx="390.8" cy="269.4" r="2.16" fill="#1FA995" opacity="0.72"/><circle cx="570.7" cy="267.8" r="2.03" fill="#1FA995" opacity="0.66"/><circle cx="298.2" cy="261" r="1.73" fill="#1FA995" opacity="0.54"/><circle cx="664" cy="242.8" r="1.02" fill="#1FA995" opacity="0.25"/><circle cx="461.1" cy="276.8" r="2.24" fill="#1FA995" opacity="0.75"/><circle cx="256" cy="245.8" r="1.03" fill="#1FA995" opacity="0.25"/><circle cx="623.2" cy="264.7" r="1.71" fill="#1FA995" opacity="0.53"/><circle cx="350.9" cy="274.6" r="2.03" fill="#1FA995" opacity="0.66"/><circle cx="531.3" cy="279.8" r="2.15" fill="#1FA995" opacity="0.71"/><circle cx="274.8" cy="263" r="1.47" fill="#1FA995" opacity="0.43"/><circle cx="655.9" cy="258.8" r="1.29" fill="#1FA995" opacity="0.36"/><circle cx="417" cy="284.5" r="2.20" fill="#1FA995" opacity="0.73"/><circle cx="592.9" cy="278.7" r="1.91" fill="#1FA995"><animate attributeName="opacity" values="0.61;1.00;0.61" dur="5s" begin="1.2s" repeatCount="indefinite"/></circle><circle cx="316.2" cy="278.3" r="1.84" fill="#1FA995" opacity="0.58"/><circle cx="488.4" cy="290.1" r="2.21" fill="#1FA995" opacity="0.73"/><circle cx="260.3" cy="264.2" r="1.19" fill="#1FA995" opacity="0.32"/><circle cx="638.3" cy="274.4" r="1.55" fill="#1FA995" opacity="0.46"/><circle cx="375.1" cy="290.5" r="2.10" fill="#1FA995" opacity="0.69"/><circle cx="556.2" cy="291.5" r="2.06" fill="#1FA995" opacity="0.67"/><circle cx="288.4" cy="280.8" r="1.61" fill="#1FA995" opacity="0.49"/><circle cx="661.9" cy="267.9" r="1.10" fill="#1FA995" opacity="0.28"/><circle cx="444.2" cy="298.8" r="2.21" fill="#1FA995" opacity="0.73"/><circle cx="255.6" cy="265" r="0.90" fill="#1FA995" opacity="0.20"/><circle cx="612.1" cy="289" r="1.77" fill="#1FA995" opacity="0.55"/><circle cx="337.3" cy="295" r="1.94" fill="#1FA995" opacity="0.62"/><circle cx="515" cy="302.7" r="2.15" fill="#1FA995" opacity="0.71"/><circle cx="269.1" cy="282.4" r="1.34" fill="#1FA995" opacity="0.38"/><circle cx="649.3" cy="283.7" r="1.37" fill="#1FA995" opacity="0.39"/><circle cx="401" cy="305.7" r="2.14" fill="#1FA995"><animate attributeName="opacity" values="0.71;1.00;0.71" dur="6s" begin="0s" repeatCount="indefinite"/></circle><circle cx="578.8" cy="302.5" r="1.94" fill="#1FA995" opacity="0.63"/><circle cx="305.8" cy="298.1" r="1.73" fill="#1FA995" opacity="0.54"/><circle cx="663.2" cy="276.9" r="0.91" fill="#1FA995" opacity="0.20"/><circle cx="471.4" cy="312.3" r="2.18" fill="#1FA995" opacity="0.72"/><circle cx="259.1" cy="283.4" r="1.06" fill="#1FA995" opacity="0.26"/><circle cx="627.7" cy="298.9" r="1.61" fill="#1FA995" opacity="0.49"/><circle cx="361" cy="311" r="2.01" fill="#1FA995" opacity="0.65"/><circle cx="540" cy="314.6" r="2.07" fill="#1FA995" opacity="0.68"/><circle cx="282" cy="300.2" r="1.48" fill="#1FA995" opacity="0.44"/><circle cx="655.9" cy="292.8" r="1.18" fill="#1FA995" opacity="0.31"/><circle cx="427.8" cy="320.1" r="2.15" fill="#1FA995" opacity="0.71"/><circle cx="598.3" cy="312.9" r="1.81" fill="#1FA995" opacity="0.57"/><circle cx="326.3" cy="314.9" r="1.83" fill="#1FA995" opacity="0.58"/><circle cx="497.9" cy="325" r="2.13" fill="#1FA995" opacity="0.70"/><circle cx="267.2" cy="301.6" r="1.21" fill="#1FA995" opacity="0.33"/><circle cx="639.2" cy="308.3" r="1.43" fill="#1FA995"><animate attributeName="opacity" values="0.42;0.92;0.42" dur="3s" begin="1.2s" repeatCount="indefinite"/></circle><circle cx="386.4" cy="326.3" r="2.06" fill="#1FA995" opacity="0.67"/><circle cx="562.7" cy="325.7" r="1.96" fill="#1FA995" opacity="0.63"/><circle cx="298.7" cy="317.6" r="1.60" fill="#1FA995" opacity="0.49"/><circle cx="657.8" cy="301.9" r="0.99" fill="#1FA995" opacity="0.24"/><circle cx="454.8" cy="333.8" r="2.13" fill="#1FA995" opacity="0.70"/><circle cx="261.9" cy="302.7" r="0.92" fill="#1FA995" opacity="0.21"/><circle cx="614.1" cy="322.9" r="1.65" fill="#1FA995" opacity="0.51"/><circle cx="349.4" cy="331" r="1.90" fill="#1FA995" opacity="0.61"/><circle cx="522.8" cy="337" r="2.05" fill="#1FA995" opacity="0.67"/><circle cx="279.4" cy="319.5" r="1.35" fill="#1FA995" opacity="0.38"/><circle cx="646.2" cy="317.5" r="1.25" fill="#1FA995" opacity="0.34"/><circle cx="412.8" cy="340.8" r="2.07" fill="#1FA995" opacity="0.68"/><circle cx="582.2" cy="336.3" r="1.82" fill="#1FA995" opacity="0.58"/><circle cx="318.5" cy="334.4" r="1.70" fill="#1FA995" opacity="0.53"/><circle cx="480.9" cy="346.6" r="2.08" fill="#1FA995" opacity="0.68"/><circle cx="269.3" cy="320.8" r="1.07" fill="#1FA995"><animate attributeName="opacity" values="0.27;0.77;0.27" dur="6s" begin="0.6s" repeatCount="indefinite"/></circle><circle cx="625.8" cy="332.4" r="1.48" fill="#1FA995" opacity="0.44"/><circle cx="374.2" cy="346.4" r="1.95" fill="#1FA995" opacity="0.63"/><circle cx="545.2" cy="348.2" r="1.94" fill="#1FA995" opacity="0.63"/><circle cx="295.4" cy="336.8" r="1.47" fill="#1FA995" opacity="0.43"/><circle cx="648.5" cy="326.6" r="1.06" fill="#1FA995" opacity="0.27"/><circle cx="439.1" cy="354.5" r="2.05" fill="#1FA995" opacity="0.67"/><circle cx="598" cy="346.3" r="1.67" fill="#1FA995" opacity="0.51"/><circle cx="340.9" cy="350.5" r="1.78" fill="#1FA995" opacity="0.56"/><circle cx="505.3" cy="358.6" r="2.01" fill="#1FA995" opacity="0.65"/><circle cx="281" cy="338.5" r="1.21" fill="#1FA995" opacity="0.32"/><circle cx="633" cy="341.8" r="1.30" fill="#1FA995" opacity="0.36"/><circle cx="399.8" cy="360.9" r="1.96" fill="#1FA995" opacity="0.63"/><circle cx="564.5" cy="358.9" r="1.81" fill="#1FA995" opacity="0.57"/><circle cx="314.6" cy="353.5" r="1.56" fill="#1FA995" opacity="0.47"/><circle cx="646.1" cy="335.9" r="0.88" fill="#1FA995" opacity="0.19"/><circle cx="464.6" cy="367.4" r="2.01" fill="#1FA995"><animate attributeName="opacity" values="0.65;1.00;0.65" dur="3s" begin="1.7999999999999998s" repeatCount="indefinite"/></circle><circle cx="275.9" cy="340" r="0.93" fill="#1FA995" opacity="0.21"/><circle cx="609.5" cy="356" r="1.50" fill="#1FA995" opacity="0.45"/><circle cx="364.9" cy="365.8" r="1.82" fill="#1FA995" opacity="0.58"/><circle cx="527.1" cy="370" r="1.90" fill="#1FA995" opacity="0.61"/><circle cx="296.5" cy="355.8" r="1.32" fill="#1FA995" opacity="0.37"/><circle cx="635.3" cy="351" r="1.12" fill="#1FA995" opacity="0.29"/><circle cx="425.4" cy="374.6" r="1.95" fill="#1FA995" opacity="0.63"/><circle cx="579.8" cy="369" r="1.67" fill="#1FA995" opacity="0.51"/><circle cx="336.3" cy="369.5" r="1.63" fill="#1FA995" opacity="0.50"/><circle cx="488.2" cy="379.5" r="1.93" fill="#1FA995" opacity="0.62"/><circle cx="287.3" cy="357.7" r="1.06" fill="#1FA995" opacity="0.27"/><circle cx="616.3" cy="365.4" r="1.33" fill="#1FA995" opacity="0.38"/><circle cx="389.8" cy="380.3" r="1.83" fill="#1FA995" opacity="0.58"/><circle cx="545.6" cy="380.7" r="1.77" fill="#1FA995" opacity="0.56"/><circle cx="315.3" cy="372.4" r="1.41" fill="#1FA995" opacity="0.41"/><circle cx="632.6" cy="360.4" r="0.94" fill="#1FA995"><animate attributeName="opacity" values="0.22;0.72;0.22" dur="5s" begin="0.8999999999999999s" repeatCount="indefinite"/></circle><circle cx="449.9" cy="387.4" r="1.90" fill="#1FA995" opacity="0.61"/><circle cx="590.5" cy="378.8" r="1.50" fill="#1FA995" opacity="0.45"/><circle cx="359.7" cy="384.7" r="1.67" fill="#1FA995" opacity="0.52"/><circle cx="509" cy="390.8" r="1.83" fill="#1FA995" opacity="0.58"/><circle cx="302.8" cy="374.7" r="1.17" fill="#1FA995" opacity="0.31"/><circle cx="617.9" cy="374.9" r="1.15" fill="#1FA995" opacity="0.30"/><circle cx="414.5" cy="393.9" r="1.81" fill="#1FA995" opacity="0.57"/><circle cx="559.8" cy="390.9" r="1.63" fill="#1FA995" opacity="0.50"/><circle cx="336.6" cy="388.2" r="1.48" fill="#1FA995" opacity="0.44"/><circle cx="472.4" cy="399.4" r="1.82" fill="#1FA995" opacity="0.58"/><circle cx="299.1" cy="376.9" r="0.93" fill="#1FA995" opacity="0.21"/><circle cx="596.2" cy="388.4" r="1.33" fill="#1FA995" opacity="0.38"/><circle cx="383.9" cy="399" r="1.68" fill="#1FA995" opacity="0.52"/><circle cx="526.1" cy="401.5" r="1.70" fill="#1FA995" opacity="0.53"/><circle cx="321.6" cy="391.1" r="1.26" fill="#1FA995" opacity="0.35"/><circle cx="614.3" cy="384.4" r="0.98" fill="#1FA995"><animate attributeName="opacity" values="0.23;0.73;0.23" dur="4s" begin="0.6s" repeatCount="indefinite"/></circle><circle cx="438" cy="406.5" r="1.76" fill="#1FA995" opacity="0.55"/><circle cx="569" cy="400.7" r="1.47" fill="#1FA995" opacity="0.43"/><circle cx="359.7" cy="403.1" r="1.51" fill="#1FA995" opacity="0.45"/><circle cx="491.8" cy="410.6" r="1.71" fill="#1FA995" opacity="0.53"/><circle cx="315.1" cy="393.7" r="1.03" fill="#1FA995" opacity="0.25"/><circle cx="596.2" cy="397.9" r="1.16" fill="#1FA995" opacity="0.31"/><circle cx="407.7" cy="412.3" r="1.65" fill="#1FA995" opacity="0.51"/><circle cx="538.5" cy="411.7" r="1.55" fill="#1FA995" opacity="0.46"/><circle cx="343.1" cy="406.6" r="1.31" fill="#1FA995" opacity="0.37"/><circle cx="459" cy="418.3" r="1.67" fill="#1FA995" opacity="0.51"/><circle cx="572.5" cy="410.3" r="1.30" fill="#1FA995" opacity="0.36"/><circle cx="383.4" cy="417" r="1.50" fill="#1FA995" opacity="0.44"/><circle cx="506.8" cy="421.1" r="1.58" fill="#1FA995" opacity="0.48"/><circle cx="335" cy="409.7" r="1.10" fill="#1FA995" opacity="0.28"/><circle cx="590.3" cy="407.6" r="1.00" fill="#1FA995" opacity="0.24"/><circle cx="430" cy="424.6" r="1.58" fill="#1FA995"><animate attributeName="opacity" values="0.48;0.98;0.48" dur="5s" begin="0.8999999999999999s" repeatCount="indefinite"/></circle><circle cx="545" cy="421.4" r="1.39" fill="#1FA995" opacity="0.40"/><circle cx="366.6" cy="421" r="1.32" fill="#1FA995" opacity="0.37"/><circle cx="476.3" cy="429.1" r="1.55" fill="#1FA995" opacity="0.46"/><circle cx="335.5" cy="412.9" r="0.89" fill="#1FA995" opacity="0.20"/><circle cx="569.4" cy="419.9" r="1.13" fill="#1FA995" opacity="0.29"/><circle cx="406.9" cy="429.8" r="1.45" fill="#1FA995" opacity="0.42"/><circle cx="516.1" cy="430.9" r="1.42" fill="#1FA995" opacity="0.41"/><circle cx="358.3" cy="424.6" r="1.13" fill="#1FA995" opacity="0.29"/><circle cx="449.5" cy="435.7" r="1.47" fill="#1FA995" opacity="0.43"/><circle cx="544.4" cy="430.8" r="1.21" fill="#1FA995" opacity="0.33"/><circle cx="391.2" cy="434.1" r="1.28" fill="#1FA995" opacity="0.36"/><circle cx="488.3" cy="439" r="1.39" fill="#1FA995" opacity="0.40"/><circle cx="358.9" cy="428.3" r="0.94" fill="#1FA995" opacity="0.22"/><circle cx="558.3" cy="429.6" r="0.96" fill="#1FA995" opacity="0.23"/><circle cx="428.6" cy="441.1" r="1.34" fill="#1FA995" opacity="0.38"/><circle cx="517.8" cy="440.1" r="1.23" fill="#1FA995"><animate attributeName="opacity" values="0.34;0.84;0.34" dur="7s" begin="1.5s" repeatCount="indefinite"/></circle><circle cx="384.6" cy="438.1" r="1.10" fill="#1FA995" opacity="0.28"/><circle cx="464.2" cy="445.5" r="1.31" fill="#1FA995" opacity="0.37"/><circle cx="534.4" cy="440" r="1.03" fill="#1FA995" opacity="0.25"/><circle cx="416.1" cy="445.6" r="1.18" fill="#1FA995" opacity="0.32"/><circle cx="492.2" cy="447.7" r="1.19" fill="#1FA995" opacity="0.32"/><circle cx="388.5" cy="442.1" r="0.93" fill="#1FA995" opacity="0.21"/><circle cx="447" cy="450.5" r="1.17" fill="#1FA995" opacity="0.31"/><circle cx="507.9" cy="448.5" r="1.02" fill="#1FA995" opacity="0.25"/><circle cx="414.9" cy="449.4" r="1.00" fill="#1FA995" opacity="0.24"/><circle cx="470.8" cy="453.2" r="1.07" fill="#1FA995" opacity="0.27"/><circle cx="441.4" cy="453.9" r="0.97" fill="#1FA995" opacity="0.23"/><circle cx="480.2" cy="454" r="0.90" fill="#1FA995" opacity="0.20"/></g>
  <circle cx="460" cy="250" r="205" fill="none" stroke="#1FA995" stroke-opacity="0.25" stroke-width="1"/>
  <g><path d="M512.4,288.9 Q599.9,246 610.3,205.3" fill="none" stroke="#FBF3E4" stroke-width="1" stroke-opacity="0.28"/><path d="M395,260.7 Q438.9,289.7 518.2,252.1" fill="none" stroke="#FBF3E4" stroke-width="1" stroke-opacity="0.28"/><path d="M413.2,241.9 Q443,177.4 488.4,179.5" fill="none" stroke="#FBF3E4" stroke-width="1" stroke-opacity="0.28"/><path d="M502.7,351 Q524,344.2 512.4,288.9" fill="none" stroke="#FBF3E4" stroke-width="1" stroke-opacity="0.28"/><path d="M518.2,252.1 Q535.5,193.1 501.9,172.5" fill="none" stroke="#FBF3E4" stroke-width="1" stroke-opacity="0.28"/><path d="M334.1,225.4 Q334.3,240.8 395,260.7" fill="none" stroke="#FBF3E4" stroke-width="1" stroke-opacity="0.28"/><path d="M622.2,170.3 Q640.1,178.3 610.3,205.3" fill="none" stroke="#FBF3E4" stroke-width="1" stroke-opacity="0.28"/><path d="M541.7,157.4 Q603.7,164.9 610.3,205.3" fill="none" stroke="#FBF3E4" stroke-width="1" stroke-opacity="0.28"/><path d="M512.4,288.9 Q483.8,324.5 436.1,300.4" fill="none" stroke="#FBF3E4" stroke-width="1" stroke-opacity="0.28"/><path d="M488.4,179.5 Q504.8,155.5 501.9,172.5" fill="none" stroke="#FBF3E4" stroke-width="1" stroke-opacity="0.28"/></g>
  <g><circle cx="512.4" cy="288.9" r="5" fill="none" stroke="#1FA995" stroke-width="1.4"><animate attributeName="r" values="5;34" dur="3.4s" begin="0.00s" repeatCount="indefinite"/><animate attributeName="stroke-opacity" values="0.6;0" dur="3.4s" begin="0.00s" repeatCount="indefinite"/></circle><circle cx="512.4" cy="288.9" r="5" fill="none" stroke="#1FA995" stroke-width="1.4"><animate attributeName="r" values="5;34" dur="3.4s" begin="1.13s" repeatCount="indefinite"/><animate attributeName="stroke-opacity" values="0.6;0" dur="3.4s" begin="1.13s" repeatCount="indefinite"/></circle><circle cx="512.4" cy="288.9" r="5" fill="none" stroke="#1FA995" stroke-width="1.4"><animate attributeName="r" values="5;34" dur="3.4s" begin="2.26s" repeatCount="indefinite"/><animate attributeName="stroke-opacity" values="0.6;0" dur="3.4s" begin="2.26s" repeatCount="indefinite"/></circle><circle cx="518.2" cy="252.1" r="5" fill="none" stroke="#FFB627" stroke-width="1.4"><animate attributeName="r" values="5;34" dur="3.4s" begin="0.00s" repeatCount="indefinite"/><animate attributeName="stroke-opacity" values="0.6;0" dur="3.4s" begin="0.00s" repeatCount="indefinite"/></circle><circle cx="518.2" cy="252.1" r="5" fill="none" stroke="#FFB627" stroke-width="1.4"><animate attributeName="r" values="5;34" dur="3.4s" begin="1.13s" repeatCount="indefinite"/><animate attributeName="stroke-opacity" values="0.6;0" dur="3.4s" begin="1.13s" repeatCount="indefinite"/></circle><circle cx="518.2" cy="252.1" r="5" fill="none" stroke="#FFB627" stroke-width="1.4"><animate attributeName="r" values="5;34" dur="3.4s" begin="2.26s" repeatCount="indefinite"/><animate attributeName="stroke-opacity" values="0.6;0" dur="3.4s" begin="2.26s" repeatCount="indefinite"/></circle></g>
  <g><circle cx="512.4" cy="288.9" r="9" fill="#1FA995" opacity="0.22"/><circle cx="512.4" cy="288.9" r="4.2" fill="#1FA995"><animate attributeName="r" values="3.6;5;3.6" dur="2.6s" begin="0.00s" repeatCount="indefinite"/></circle><circle cx="395" cy="260.7" r="7" fill="#FFB627" opacity="0.22"/><circle cx="395" cy="260.7" r="3.2" fill="#FFB627"><animate attributeName="r" values="2.8;4;2.8" dur="2.6s" begin="0.20s" repeatCount="indefinite"/></circle><circle cx="413.2" cy="241.9" r="7" fill="#F26A4B" opacity="0.22"/><circle cx="413.2" cy="241.9" r="3.2" fill="#F26A4B"><animate attributeName="r" values="2.8;4;2.8" dur="2.6s" begin="0.40s" repeatCount="indefinite"/></circle><circle cx="518.2" cy="252.1" r="9" fill="#FFB627" opacity="0.22"/><circle cx="518.2" cy="252.1" r="4.2" fill="#FFB627"><animate attributeName="r" values="3.6;5;3.6" dur="2.6s" begin="0.60s" repeatCount="indefinite"/></circle><circle cx="610.3" cy="205.3" r="7" fill="#FBF3E4" opacity="0.22"/><circle cx="610.3" cy="205.3" r="3.2" fill="#FBF3E4"><animate attributeName="r" values="2.8;4;2.8" dur="2.6s" begin="0.80s" repeatCount="indefinite"/></circle><circle cx="622.2" cy="170.3" r="7" fill="#1FA995" opacity="0.22"/><circle cx="622.2" cy="170.3" r="3.2" fill="#1FA995"><animate attributeName="r" values="2.8;4;2.8" dur="2.6s" begin="1.00s" repeatCount="indefinite"/></circle><circle cx="501.9" cy="172.5" r="7" fill="#1FA995" opacity="0.22"/><circle cx="501.9" cy="172.5" r="3.2" fill="#1FA995"><animate attributeName="r" values="2.8;4;2.8" dur="2.6s" begin="1.20s" repeatCount="indefinite"/></circle><circle cx="502.7" cy="351" r="7" fill="#F26A4B" opacity="0.22"/><circle cx="502.7" cy="351" r="3.2" fill="#F26A4B"><animate attributeName="r" values="2.8;4;2.8" dur="2.6s" begin="1.40s" repeatCount="indefinite"/></circle><circle cx="488.4" cy="179.5" r="7" fill="#FBF3E4" opacity="0.22"/><circle cx="488.4" cy="179.5" r="3.2" fill="#FBF3E4"><animate attributeName="r" values="2.8;4;2.8" dur="2.6s" begin="1.60s" repeatCount="indefinite"/></circle><circle cx="436.1" cy="300.4" r="7" fill="#1FA995" opacity="0.22"/><circle cx="436.1" cy="300.4" r="3.2" fill="#1FA995"><animate attributeName="r" values="2.8;4;2.8" dur="2.6s" begin="1.80s" repeatCount="indefinite"/></circle><circle cx="334.1" cy="225.4" r="7" fill="#FFB627" opacity="0.22"/><circle cx="334.1" cy="225.4" r="3.2" fill="#FFB627"><animate attributeName="r" values="2.8;4;2.8" dur="2.6s" begin="2.00s" repeatCount="indefinite"/></circle><circle cx="541.7" cy="157.4" r="7" fill="#FFB627" opacity="0.22"/><circle cx="541.7" cy="157.4" r="3.2" fill="#FFB627"><animate attributeName="r" values="2.8;4;2.8" dur="2.6s" begin="2.20s" repeatCount="indefinite"/></circle></g>
  <g><circle r="2.6" fill="#FBF3E4"><animateMotion dur="2.4s" begin="0.00s" repeatCount="indefinite" path="M512.4,288.9 Q599.9,246 610.3,205.3"/><animate attributeName="opacity" values="0;1;1;0" dur="2.4s" begin="0.00s" repeatCount="indefinite"/></circle><circle r="2.6" fill="#FBF3E4"><animateMotion dur="2.8s" begin="0.50s" repeatCount="indefinite" path="M395,260.7 Q438.9,289.7 518.2,252.1"/><animate attributeName="opacity" values="0;1;1;0" dur="2.8s" begin="0.50s" repeatCount="indefinite"/></circle><circle r="2.6" fill="#FBF3E4"><animateMotion dur="3.2s" begin="1.00s" repeatCount="indefinite" path="M413.2,241.9 Q443,177.4 488.4,179.5"/><animate attributeName="opacity" values="0;1;1;0" dur="3.2s" begin="1.00s" repeatCount="indefinite"/></circle><circle r="2.6" fill="#FBF3E4"><animateMotion dur="3.6s" begin="1.50s" repeatCount="indefinite" path="M502.7,351 Q524,344.2 512.4,288.9"/><animate attributeName="opacity" values="0;1;1;0" dur="3.6s" begin="1.50s" repeatCount="indefinite"/></circle><circle r="2.6" fill="#FBF3E4"><animateMotion dur="2.4s" begin="2.00s" repeatCount="indefinite" path="M518.2,252.1 Q535.5,193.1 501.9,172.5"/><animate attributeName="opacity" values="0;1;1;0" dur="2.4s" begin="2.00s" repeatCount="indefinite"/></circle><circle r="2.6" fill="#FBF3E4"><animateMotion dur="2.8s" begin="2.50s" repeatCount="indefinite" path="M334.1,225.4 Q334.3,240.8 395,260.7"/><animate attributeName="opacity" values="0;1;1;0" dur="2.8s" begin="2.50s" repeatCount="indefinite"/></circle><circle r="2.6" fill="#FBF3E4"><animateMotion dur="3.2s" begin="3.00s" repeatCount="indefinite" path="M622.2,170.3 Q640.1,178.3 610.3,205.3"/><animate attributeName="opacity" values="0;1;1;0" dur="3.2s" begin="3.00s" repeatCount="indefinite"/></circle><circle r="2.6" fill="#FBF3E4"><animateMotion dur="3.6s" begin="3.50s" repeatCount="indefinite" path="M541.7,157.4 Q603.7,164.9 610.3,205.3"/><animate attributeName="opacity" values="0;1;1;0" dur="3.6s" begin="3.50s" repeatCount="indefinite"/></circle><circle r="2.6" fill="#FBF3E4"><animateMotion dur="2.4s" begin="4.00s" repeatCount="indefinite" path="M512.4,288.9 Q483.8,324.5 436.1,300.4"/><animate attributeName="opacity" values="0;1;1;0" dur="2.4s" begin="4.00s" repeatCount="indefinite"/></circle><circle r="2.6" fill="#FBF3E4"><animateMotion dur="2.8s" begin="4.50s" repeatCount="indefinite" path="M488.4,179.5 Q504.8,155.5 501.9,172.5"/><animate attributeName="opacity" values="0;1;1;0" dur="2.8s" begin="4.50s" repeatCount="indefinite"/></circle></g>
</svg>
